<?xml version="1.0" standalone="no"?>
<!DOCTYPE svg PUBLIC "-//W3C//DTD SVG 1.1//EN" "http://www.w3.org/Graphics/SVG/1.1/DTD/svg11.dtd"><svg t="1614583408182"
  class="icon" viewBox="0 0 1045 1024" version="1.1" xmlns="http://www.w3.org/2000/svg" p-id="1753"
  xmlns:xlink="http://www.w3.org/1999/xlink" width="130.625" height="128">
  <defs>
    <style type="text/css"></style>
  </defs>
  <path
    d="M522.988659 2.225484c15.667405 0 30.622655 6.275864 41.460761 17.202988l2.848619 3.071168 98.945003 113.143589 148.706818-23.434343a58.552475 58.552475 0 0 1 43.953303 10.103696l3.338225 2.603816c12.084376 10.059186 19.517492 24.48032 20.741508 39.836157l0.178038 4.183909 2.581561 149.775051 129.078053 77.023989c13.57545 7.900467 23.323069 20.875037 27.1509 35.941561l0.890194 4.161654a57.951594 57.951594 0 0 1-9.858893 43.775264l-2.581561 3.338225-94.894623 116.481815 46.356824 133.640294-37.833222 13.130353-49.850834-143.69948-0.222548-2.559306c-0.267058-3.560774 0.066765-7.121548 0.956958-10.526537l1.112742-3.382736 1.134996-2.937638 102.327739-125.628552a17.959653 17.959653 0 0 0-2.7596-25.682082l-2.269993-1.557838-136.15509-81.230154-3.850087-2.982148a31.245791 31.245791 0 0 1-6.209099-8.768406l-1.335291-3.338225-1.023722-2.959893-2.781855-161.570114a17.981908 17.981908 0 0 0-6.498412-13.686724 18.427005 18.427005 0 0 0-12.395944-4.228419l-2.781854 0.267058-160.012275 25.236984-3.115677-0.511861a35.830287 35.830287 0 0 1-7.455371-2.02519l-3.516264-1.602348-3.338225-1.735877-107.023509-122.401602a18.471514 18.471514 0 0 0-26.260708-1.780387l-1.913916 1.958426-104.152635 119.17465-3.627538 3.226951c-2.959893 2.0697-6.231354 3.605284-9.703109 4.539987l-3.516264 0.73441-3.048913 0.467351-160.524136-25.281494a18.471514 18.471514 0 0 0-14.91074 4.00587 17.981908 17.981908 0 0 0-6.298119 11.216438l-0.222548 2.71509-2.737345 160.368352-0.667645 2.448032a31.37932 31.37932 0 0 1-4.539987 9.61409l-2.203229 2.804109-2.0697 2.336758-139.270767 83.121815a17.870634 17.870634 0 0 0-6.298119 25.058946l1.602349 2.225483 101.571074 124.60483 1.045977 2.314503c1.491074 3.226951 2.403522 6.676451 2.737345 10.17046l0.155784 3.560774-0.066765 3.182442-52.966511 152.779453a17.915143 17.915143 0 0 0 1.357545 15.066524c2.225484 3.850087 5.786258 6.720961 10.125951 8.167525l2.67058 0.667645 158.454437 30.555891 2.336758 1.112742c3.182442 1.535584 6.097825 3.583029 8.612621 6.07557l2.359013 2.626071 1.958426 2.448032 58.218652 150.843282c1.869406 4.962829 5.853022 8.901935 10.90487 10.726832 4.228419 1.557839 8.87968 1.468819 13.130354-0.222549l2.514796-1.201761 141.095664-77.780654 2.448032-0.623135c3.40499-0.890193 6.943509-1.179506 10.459773-0.890194l3.471755 0.445097 3.115677 0.600881 94.137958 51.920533-19.361707 35.095878-84.123283-46.401335-131.681868 72.595277a58.596985 58.596985 0 0 1-44.754476 5.452435l-4.072635-1.313035a58.263162 58.263162 0 0 1-33.115197-30.333342l-1.624603-3.872342-54.034743-140.005177-147.816625-28.486191a58.441201 58.441201 0 0 1-37.810967-24.48032l-2.269993-3.605283a57.92934 57.92934 0 0 1-5.786258-44.509674l1.290781-4.00587 49.094169-141.62978-94.694329-116.170247a57.996104 57.996104 0 0 1-13.174864-43.063109l0.578626-4.228419a58.085123 58.085123 0 0 1 24.302282-37.744202l3.560774-2.225484 129.211581-77.135264 2.581561-149.530247a58.018359 58.018359 0 0 1 17.71485-41.393996l3.182441-2.848619a58.485711 58.485711 0 0 1 42.862815-13.330647l4.18391 0.556371 149.018385 23.478853 98.766965-112.987806a58.507965 58.507965 0 0 1 40.21449-20.29641L522.966405 2.225484z"
    p-id="1754" fill="#ffc300"></path>
  <path
    d="M1041.148019 793.696491a20.029353 20.029353 0 0 0-3.471754-4.784789 18.182201 18.182201 0 0 0-12.907805-5.541455 17.581321 17.581321 0 0 0-6.342629 1.246271l-265.010594 134.107645a29.398639 29.398639 0 0 1-27.440213-3.338225l-66.363923-50.028873a9.814383 9.814383 0 0 0-10.771341-1.001467 10.993889 10.993889 0 0 0-5.674983 9.747618c0 1.580093 0.356077 3.137932 0.979213 4.584496l56.237972 130.747165 1.33529 3.115677c5.38567 10.21497 17.403282 14.109566 27.23992 8.812916l2.269993-1.3798s303.466951-199.55912 304.624203-200.382549a20.47445 20.47445 0 0 0 5.452435-25.90463M701.33892 723.282189l-105.532435-149.975344-1.557839-2.180974-2.537051 0.890193a110.606538 110.606538 0 0 1-77.113009 0l-2.537051-0.890193-1.557839 2.180974-105.55469 149.930834-42.19517-29.376384 104.286164-148.150447 1.557839-2.336758-1.936171-2.091955a117.416518 117.416518 0 0 1 3.471755-164.908339 118.952101 118.952101 0 0 1 165.820787 0 117.416518 117.416518 0 0 1 3.471754 164.908339l-1.958425 2.091955 1.557838 2.336758 104.286164 148.150447-41.972621 29.420894z"
    p-id="1755" fill="#ffc300"></path>
  <path d="M482.929954 462.900601a70.102735 70.102735 0 1 0 140.20547 0 70.102735 70.102735 0 0 0-140.20547 0z"
    p-id="1756" fill="#ffc300"></path>
</svg>